<svg viewBox="0 0 1024 1024" version="1.1" xmlns="http://www.w3.org/2000/svg">
  <path d="M460.6 190.1c-47 0-85.2 38.2-85.2 85.2s38.2 85.2 85.2 85.2 85.2-38.2 85.2-85.2-38.2-85.2-85.2-85.2z m0 127.8c-23.5 0-42.6-19.1-42.6-42.6s19.1-42.6 42.6-42.6 42.6 19.1 42.6 42.6-19.1 42.6-42.6 42.6zM332.7 509.7c-35.2 0-63.9 28.7-63.9 63.9s28.7 63.9 63.9 63.9 63.9-28.7 63.9-63.9c0.1-35.3-28.6-63.9-63.9-63.9z m0 85.2c-11.7 0-21.3-9.6-21.3-21.3 0-11.8 9.6-21.3 21.3-21.3 11.7 0 21.3 9.6 21.3 21.3 0.1 11.7-9.5 21.3-21.3 21.3z m362.2 106.5c-23.5 0-42.6 19.1-42.6 42.6s19.1 42.6 42.6 42.6 42.6-19.1 42.6-42.6c0.1-23.4-19-42.6-42.6-42.6z" fill="#ffffff"></path>
  <path d="M901.3 292.5c50.5-94.2 60.1-161.7 26.4-195.3-32.5-32.5-131.9-12.3-193.8 27.4-65.4-37.5-141-59.3-221.7-59.3C265.5 65.3 64.8 266 64.8 512.7c0 78.3 20.4 151.9 55.9 216.1C62.5 832 51 902.5 86.7 938.3c13.3 13.3 31.9 20 55.4 20 38.7 0 90.7-18.2 154.1-53.9 64.1 35.5 137.7 55.9 216.1 55.9 246.7 0 447.4-200.7 447.4-447.4-0.1-80.3-21.5-155.3-58.4-220.4z m-3.7-165.2c12.6 12.6 12.3 52.3-22.9 124.2-28.1-38.8-62.1-72.9-100.9-101 52.9-27.9 113.2-32 123.8-23.2zM116.8 908c-13.3-13.3-12.2-57.3 29.9-138.1 29.6 42 66.3 78.6 108.2 108.2-80.6 42.1-124.6 43.4-138.1 29.9z m-9.4-395.3c0-223.2 181.6-404.8 404.8-404.8 142.5 0 267.8 74.2 339.9 185.8l-1.2 2.1c-55.5 95.2-145 206.6-252.1 313.6-102.9 102.9-209.7 189.3-302.4 245.2-113.4-71.9-189-198.1-189-341.9z m404.8 404.8c-61.9 0-120.3-14.4-172.8-39.3 90.5-57.6 192-141 289.6-238.7 102.6-102.6 189.3-209.3 247-303.2 26 53.4 41 113.1 41 176.3 0 223.3-181.6 404.9-404.8 404.9z" fill="#ffffff"></path>
</svg>