<svg viewBox="0 0 1024 1024" version="1.1" xmlns="http://www.w3.org/2000/svg">
  <path d="M922.048 1017.856a25.408 25.408 0 1 1 0-50.88c14.72 0 27.968-6.848 36.416-18.88a46.336 46.336 0 0 0 5.632-42.752 471.104 471.104 0 0 0-294.528-286.656 25.472 25.472 0 0 1 15.744-48.448 522.368 522.368 0 0 1 326.656 318.016c10.688 29.952 6.336 63.232-12.032 89.152-17.92 25.728-46.4 40.448-77.888 40.448zM95.744 1017.856a94.08 94.08 0 0 1-78.016-40.512 97.6 97.6 0 0 1-11.904-89.152 522.24 522.24 0 0 1 326.656-318.016 25.536 25.536 0 0 1 15.808 48.448 470.72 470.72 0 0 0-294.592 286.656 46.272 46.272 0 0 0 5.568 42.752 43.904 43.904 0 0 0 36.416 18.88 25.408 25.408 0 0 1 0.064 50.944z" fill="#4D4D4D"></path>
  <path d="M508.928 661.632c-182.4 0-330.816-148.416-330.816-330.816S326.528 0 508.928 0c182.4 0 330.752 148.352 330.752 330.752s-148.352 330.88-330.752 330.88z m0-610.752a280.192 280.192 0 0 0-279.936 279.872 280.32 280.32 0 0 0 279.936 280 280.32 280.32 0 0 0 279.872-280A280.32 280.32 0 0 0 508.928 50.88z" fill="#4D4D4D"></path>
</svg>