<svg viewBox="0 0 1024 1024" version="1.1" xmlns="http://www.w3.org/2000/svg">
  <path d="M505.3952 946.5344c-17.92 0-35.8912-6.8096-49.5104-20.48L365.8752 836.096H249.5488c-38.6048 0-70.0416-31.4368-70.0416-70.0416v-116.3776l-82.2784-82.2784c-27.2896-27.2896-27.2896-71.7312 0-99.072L179.5072 386.048V258.816c0-38.6048 31.4368-70.0416 70.0416-70.0416h127.232L466.688 98.816c27.3408-27.2896 71.7312-27.2896 99.072 0l89.9584 89.9584h116.3776c38.6048 0 70.0416 31.4368 70.0416 70.0416v116.3776l82.2784 82.2784c13.2096 13.2096 20.5312 30.8224 20.5312 49.5104 0 18.7392-7.2704 36.3008-20.5312 49.5104l-82.2784 82.2784v127.232c0 38.6048-31.4368 70.0416-70.0416 70.0416h-127.232l-89.9584 89.9584a69.82656 69.82656 0 0 1-49.5104 20.5312zM251.1872 764.416H366.592c18.688 0 36.3008 7.2704 49.5104 20.5312l89.2928 89.2928 89.2928-89.2928c13.2096-13.2096 30.8224-20.5312 49.5104-20.5312h126.2592v-126.2592c0-18.688 7.2704-36.3008 20.48-49.5104l81.6128-81.6128-81.6128-81.6128c-13.2096-13.2608-20.5312-30.8224-20.5312-49.5104V260.5056h-115.4048c-18.688 0-36.3008-7.2704-49.5104-20.5312l-89.2928-89.2928-89.2416 89.2928a69.64224 69.64224 0 0 1-49.5104 20.5312H251.1872v126.2592c0 18.7392-7.2704 36.3008-20.5312 49.5104l-81.6128 81.6128 81.6128 81.6128c13.2096 13.2096 20.5312 30.8224 20.5312 49.5104v115.4048z m590.4384-125.1328z" fill="#ffffff"></path>
  <path d="M472.4224 640.3584a35.7888 35.7888 0 0 1-24.4224-9.6256l-113.8176-106.1888a35.7888 35.7888 0 0 1-1.7408-50.6368c13.4656-14.4896 36.1472-15.2576 50.6368-1.7408l88.7808 82.7904 159.744-156.416a35.88096 35.88096 0 0 1 50.688 0.512 35.88096 35.88096 0 0 1-0.512 50.688l-184.1664 180.3776c-7.0656 6.8096-16.128 10.24-25.1904 10.24z" fill="#ffffff"></path>
</svg>